# xmcd CD database file
#
# Track frame offsets:
#	150
#	45317
#	58347
#	78369
#	91770
#	101307
#	129933
#	142084
#	164749
#	198667
#	219211
#	226623
#	237379
#	248583
#
# Disc length: 3471 seconds
#
# Revision: 0
# Processed by: cddbd v1.5.2PL0 Copyright (c) Steve Scherf et al.
# Submitted via: CDex 1.50
#
DISCID=b30d8d0e
DTITLE=Dave Brubeck Quartet with Carmen McRae - Tonight Only!
DYEAR=1961
DGENRE=Jazz
TTITLE0=Melanctha
TTITLE1=Weep No More
TTITLE2=Talkin' and Walkin'
TTITLE3=Briar Bush [aka Southern Scene]
TTITLE4=Paradiddle Joe
TTITLE5=Late Lament
TTITLE6=Strange Meadowlark
TTITLE7=Tristesse
TTITLE8=Tonight Only
TTITLE9=There'll Be No Tomorrow
TTITLE10=Easy as You Go
TTITLE11=Summer Song
TTITLE12=In the Lurch
TTITLE13=My One Bad Habit
EXTD=YEAR: 1961
EXTT0=
EXTT1=
EXTT2=
EXTT3=
EXTT4=
EXTT5=
EXTT6=
EXTT7=
EXTT8=
EXTT9=
EXTT10=
EXTT11=
EXTT12=
EXTT13=
PLAYORDER=
